<?xml version="1.0" encoding="UTF-8"?>
<svg width="100px" height="100px" viewBox="0 0 100 100" version="1.1" xmlns="http://www.w3.org/2000/svg" xmlns:xlink="http://www.w3.org/1999/xlink">
    <!-- Generator: Sketch 52.6 (67491) - http://www.bohemiancoding.com/sketch -->
    <title>Artboard</title>
    <desc>Created with Sketch.</desc>
    <g id="Artboard" stroke="none" stroke-width="1" fill="none" fill-rule="evenodd">
        <path d="M92.7019694,100 L68.2384571,100 L68.2384571,61.2731879 L80.7173327,61.2731879 L82.587072,46.1823432 L68.2384571,46.1823432 L68.2384571,36.5476288 C68.2384571,32.1783662 69.4047561,29.1983329 75.4193021,29.1983329 L83.0917709,29.1956089 L83.0917709,15.6982921 C81.7633407,15.5130615 77.2105908,15.1017406 71.9125603,15.1017406 C60.8510256,15.1017406 53.2779276,22.1350549 53.2779276,35.0521642 L53.2779276,46.1823432 L40.7676718,46.1823432 L40.7676718,61.2731879 L53.2779276,61.2731879 L53.2779276,100 L7.29803056,100 C4.37182316,100 2,97.5293509 2,94.4812182 L2,5.51878184 C2,2.47064912 4.37182316,0 7.29803056,0 L92.7019694,0 C95.6281768,0 98,2.47064912 98,5.51878184 L98,94.4812182 C98,97.5293509 95.6281768,100 92.7019694,100 Z" id="Facebook" fill="#00B37E"></path>
    </g>
</svg>