<?xml version="1.0" encoding="UTF-8"?>
<svg width="100px" height="100px" viewBox="0 0 100 100" version="1.1" xmlns="http://www.w3.org/2000/svg" xmlns:xlink="http://www.w3.org/1999/xlink">
    <!-- Generator: Sketch 52.6 (67491) - http://www.bohemiancoding.com/sketch -->
    <title>Artboard</title>
    <desc>Created with Sketch.</desc>
    <g id="Artboard" stroke="none" stroke-width="1" fill="none" fill-rule="evenodd">
        <g id="globe-asia" transform="translate(13.000000, 11.000000)" fill="#00B37E" fill-rule="nonzero">
            <path d="M36.0083255,0 C16.1209854,0 0,16.0672846 0,35.8883777 C0,55.7094709 16.1209854,71.7767555 36.0083255,71.7767555 C55.8956656,71.7767555 72.0166511,55.7094709 72.0166511,35.8883777 C72.0166511,16.0672846 55.8956656,0 36.0083255,0 Z M33.9672619,37.0106448 C33.5695092,37.7386834 32.8524531,38.1842672 32.0789684,38.1842672 L32.0363029,38.1842672 C31.4527487,38.1842672 30.8925916,38.4395339 30.4796995,38.89267 L29.7007096,39.7475867 C29.2713017,40.2188482 29.2713017,40.9846482 29.7007096,41.4559097 L30.4796995,42.3108265 C30.8925916,42.7639626 31.1251875,43.3787172 31.1251875,44.0191495 L31.1251875,45.4344445 C31.1251875,46.7696855 30.1397516,47.8511703 28.923096,47.8511703 L28.0821723,47.8511703 C27.2481301,47.8511703 26.4856559,47.3345952 26.1126767,46.5144189 L22.9994698,39.6826372 C22.6636508,38.9455358 21.7676748,38.7854278 21.2364202,39.3684629 L18.5567501,42.3078056 C18.1438579,42.7609417 17.5837009,43.0162083 17.0001467,43.0162083 L8.38859244,43.0162083 C8.15599653,41.4392948 8.00185012,39.8336826 8.00185012,38.1842672 C8.00185012,21.5269848 20.3500784,7.97519505 35.5279943,7.97519505 C38.4884311,7.97519505 41.3360107,8.50536427 44.0101756,9.4584605 L37.1066187,15.2782383 C36.4033257,15.7933029 36.4693884,16.9487999 37.2249811,17.3641747 L38.7155218,18.1813301 C39.4614803,18.590663 39.9321774,19.4274543 39.9321774,20.3427892 L39.9321774,32.1424528 C39.9321774,32.8100733 39.4394594,33.3508157 38.8311316,33.3508157 L38.4099816,33.3508157 C37.9929605,33.3508157 37.6117234,33.0925281 37.425922,32.6831952 C37.211218,32.2119337 36.6056429,32.1862559 36.3579076,32.6378816 L33.9672619,37.0106448 Z M60.0138759,48.6520965 C60.0138759,49.1805082 59.7907514,49.6877335 59.3946725,50.0616097 L58.1311808,51.2542748 C57.7351019,51.6281509 57.1977549,51.8387679 56.6379633,51.8387679 L54.6364446,51.8387679 C54.0766531,51.8387679 53.5393061,51.6281509 53.1432271,51.2542748 L51.425565,49.6328984 C50.5477581,48.8043294 49.2737599,48.4712774 48.0694564,48.7555356 L45.2612569,49.4185427 C45.0935835,49.4584228 44.9219493,49.4783629 44.7489949,49.4783629 L43.3838429,49.4783629 C42.8240514,49.4783629 42.2867044,49.267746 41.8906255,48.8938698 L40.3181922,47.4095813 C40.1202632,47.2223848 40.0091463,46.9686811 40.0092507,46.7042016 L40.0092507,45.4330226 C40.0092507,45.0254976 40.271983,44.6590989 40.673343,44.5070559 L45.8672577,42.5454522 C46.1286697,42.4469982 46.3768792,42.318634 46.6052847,42.1653448 L49.7356283,40.0604219 C49.9144706,39.9401696 50.1286545,39.8756819 50.3482303,39.8759763 L51.9444283,39.8759763 C52.3708733,39.8759763 52.7563901,40.1177495 52.9201027,40.4903795 L53.6264434,42.0918158 C53.7084624,42.2774091 53.9005841,42.3983105 54.1136205,42.3983942 L54.6153204,42.3983942 C54.8503272,42.3983942 55.0576085,42.2513363 55.1223014,42.0394731 L55.6768119,40.2361437 C55.742825,40.0230342 55.9487861,39.8772225 56.1837929,39.8772225 L56.9838723,39.8772225 C57.2756504,39.8772225 57.5119775,40.100302 57.5119775,40.3757241 L57.5119775,41.9871304 C57.5119775,42.2513363 57.6228796,42.5055721 57.820919,42.6925102 L59.3933523,44.1767986 C59.7894312,44.5506748 60.0125556,45.0579002 60.0125556,45.5863118 L60.0125556,48.6520965 L60.0138759,48.6520965 Z" id="Shape"></path>
        </g>
    </g>
</svg>