<?xml version="1.0" encoding="UTF-8"?>
<svg width="100px" height="100px" viewBox="0 0 100 100" version="1.1" xmlns="http://www.w3.org/2000/svg" xmlns:xlink="http://www.w3.org/1999/xlink">
    <!-- Generator: Sketch 52.6 (67491) - http://www.bohemiancoding.com/sketch -->
    <title>Artboard</title>
    <desc>Created with Sketch.</desc>
    <g id="Artboard" stroke="none" stroke-width="1" fill="none" fill-rule="evenodd">
        <g id="instagram" transform="translate(2.000000, 0.000000)" fill="#00B37E" fill-rule="nonzero">
            <path d="M48.5108199,24.361263 C34.7479643,24.361263 23.6467931,35.8083231 23.6467931,50 C23.6467931,64.1916769 34.7479643,75.638737 48.5108199,75.638737 C62.2736754,75.638737 73.3748466,64.1916769 73.3748466,50 C73.3748466,35.8083231 62.2736754,24.361263 48.5108199,24.361263 Z M48.5108199,66.6685262 C39.6168991,66.6685262 32.3459565,59.1933504 32.3459565,50 C32.3459565,40.8066496 39.5952593,33.3314738 48.5108199,33.3314738 C57.4263804,33.3314738 64.6756832,40.8066496 64.6756832,50 C64.6756832,59.1933504 57.4047407,66.6685262 48.5108199,66.6685262 Z M80.1913553,23.312507 C80.1913553,26.6372866 77.5945901,29.2926476 74.391913,29.2926476 C71.1675962,29.2926476 68.5924707,26.6149727 68.5924707,23.312507 C68.5924707,20.0100413 71.1892359,17.3323664 74.391913,17.3323664 C77.5945901,17.3323664 80.1913553,20.0100413 80.1913553,23.312507 Z M96.6591746,29.3819034 C96.2912995,21.3711927 94.5168433,14.2753542 88.8255996,8.4290974 C83.1559955,2.58284057 76.2745678,0.753096062 68.5059119,0.351444829 C60.4992192,-0.117148276 36.5007808,-0.117148276 28.4940881,0.351444829 C20.7470719,0.730782104 13.8656442,2.56052661 8.17440045,8.40678344 C2.48315672,14.2530403 0.730340212,21.3488787 0.340825432,29.3595894 C-0.113608477,37.6157537 -0.113608477,62.3619324 0.340825432,70.6180966 C0.708700502,78.6288073 2.48315672,85.7246458 8.17440045,91.5709026 C13.8656442,97.4171594 20.7254322,99.2469039 28.4940881,99.6485552 C36.5007808,100.117148 60.4992192,100.117148 68.5059119,99.6485552 C76.2745678,99.2692179 83.1559955,97.4394734 88.8255996,91.5709026 C94.4952036,85.7246458 96.2696598,78.6288073 96.6591746,70.6180966 C97.1136085,62.3619324 97.1136085,37.6380676 96.6591746,29.3819034 Z M86.3153932,79.4767377 C84.6274958,83.8502733 81.3598996,87.2196809 77.0968767,88.9824835 C70.7131623,91.5932166 55.5653653,90.9907397 48.5108199,90.9907397 C41.4562744,90.9907397 26.2868377,91.5709026 19.924763,88.9824835 C15.6833798,87.2419949 12.4157836,83.8725873 10.7062465,79.4767377 C8.17440045,72.8941203 8.75867262,57.2743501 8.75867262,50 C8.75867262,42.7256499 8.19604016,27.0835658 10.7062465,20.5232623 C12.3941439,16.1497267 15.6617401,12.7803191 19.924763,11.0175165 C26.3084774,8.40678344 41.4562744,9.00926029 48.5108199,9.00926029 C55.5653653,9.00926029 70.734802,8.4290974 77.0968767,11.0175165 C81.3382599,12.7580051 84.6058561,16.1274127 86.3153932,20.5232623 C88.8472393,27.1058797 88.2629671,42.7256499 88.2629671,50 C88.2629671,57.2743501 88.8472393,72.9164342 86.3153932,79.4767377 Z" id="Shape"></path>
        </g>
    </g>
</svg>