<?xml version="1.0" encoding="UTF-8"?>
<svg width="100px" height="100px" viewBox="0 0 100 100" version="1.1" xmlns="http://www.w3.org/2000/svg" xmlns:xlink="http://www.w3.org/1999/xlink">
    <!-- Generator: Sketch 52.6 (67491) - http://www.bohemiancoding.com/sketch -->
    <title>Artboard</title>
    <desc>Created with Sketch.</desc>
    <g id="Artboard" stroke="none" stroke-width="1" fill="none" fill-rule="evenodd">
        <g id="md-ribbon" transform="translate(14.000000, 4.000000)">
            <path d="M35.3157185,0 C18.6396106,0 5.12417939,12.3075052 5.12417939,27.4932054 C5.12417939,42.6789056 18.6396106,54.9864108 35.3157185,54.9864108 C51.9918265,54.9864108 65.5072577,42.6789056 65.5072577,27.4932054 C65.5072577,12.3075052 51.9918265,0 35.3157185,0 Z M23.8626545,59.6942191 C20.2201561,58.1341596 14.3917773,54.3353721 14.1438585,54.0464722 L0,77.3879674 L15.9302281,77.3479207 L23.6308047,91 L37.8293062,61.4721946 C36.2273697,61.7225745 27.6386476,61.3120586 23.8626545,59.6942191 Z M54.5446255,54.0464722 C54.293811,54.3162398 49.3211832,59.3696566 43.473527,60.2678206 L37.7394239,72.8473806 L47.107226,89.8953888 L52.6531076,77.355317 L69,76.2005262 L54.5446255,54.0464722 Z" id="Shape" fill="#F6AD18" fill-rule="nonzero"></path>
            <polygon id="Rating-2-Copy-6" fill="#FFFFFF" points="35.9990174 5 41.4852531 18.8817954 41.9241519 19.9917185 43.0397411 20.0974926 57 21.4224897 46.4303985 31.3299989 45.5853544 32.1218944 45.8369024 33.2973975 48.9786321 48 36.9593543 40.2397055 35.9983623 39.619164 35.0373704 40.2397055 23.0194026 47.9992948 26.1630976 33.2973975 26.4139905 32.1218944 25.5689464 31.3299989 15 21.4231949 28.9596038 20.0981977 30.0758481 19.9924236 30.5147469 18.8825005"></polygon>
        </g>
    </g>
</svg>