<?xml version="1.0" encoding="UTF-8"?>
<svg width="100px" height="100px" viewBox="0 0 100 100" version="1.1" xmlns="http://www.w3.org/2000/svg" xmlns:xlink="http://www.w3.org/1999/xlink">
    <!-- Generator: Sketch 52.6 (67491) - http://www.bohemiancoding.com/sketch -->
    <title>Artboard</title>
    <desc>Created with Sketch.</desc>
    <g id="Artboard" stroke="none" stroke-width="1" fill="none" fill-rule="evenodd">
        <g id="user" transform="translate(17.000000, 13.000000)" fill="#00B37E" fill-rule="nonzero">
            <path d="M33.7578052,37.8510234 C44.4126124,37.8510234 53.0479796,29.3788998 53.0479796,18.9255117 C53.0479796,8.4721236 44.4126124,0 33.7578052,0 C23.1029979,0 14.4676308,8.4721236 14.4676308,18.9255117 C14.4676308,29.3788998 23.1029979,37.8510234 33.7578052,37.8510234 Z M47.2609273,42.5824013 L44.7441623,42.5824013 C41.3985227,44.090528 37.6761219,44.9480903 33.7578052,44.9480903 C29.8394885,44.9480903 26.1321581,44.090528 22.7714481,42.5824013 L20.2546831,42.5824013 C9.07241014,42.5824013 0,51.483306 0,62.4541886 L0,68.6049799 C0,72.5231523 3.24014648,75.7020468 7.2338154,75.7020468 L60.281795,75.7020468 C64.2754639,75.7020468 67.5156104,72.5231523 67.5156104,68.6049799 L67.5156104,62.4541886 C67.5156104,51.483306 58.4432002,42.5824013 47.2609273,42.5824013 Z" id="Shape"></path>
        </g>
    </g>
</svg>