<?xml version="1.0" encoding="UTF-8"?>
<svg width="100px" height="100px" viewBox="0 0 100 100" version="1.1" xmlns="http://www.w3.org/2000/svg" xmlns:xlink="http://www.w3.org/1999/xlink">
    <!-- Generator: Sketch 52.6 (67491) - http://www.bohemiancoding.com/sketch -->
    <title>Artboard</title>
    <desc>Created with Sketch.</desc>
    <g id="Artboard" stroke="none" stroke-width="1" fill="none" fill-rule="evenodd">
        <g id="globe-asia" transform="translate(13.000000, 12.000000)" fill="#00B37E" fill-rule="nonzero">
            <path d="M36.0994858,0 C16.161798,0 0,16.1014177 0,35.9646185 C0,55.8278193 16.161798,71.9292371 36.0994858,71.9292371 C56.0371737,71.9292371 72.1989717,55.8278193 72.1989717,35.9646185 C72.1989717,16.1014177 56.0371737,0 36.0994858,0 Z M30.7289883,16.9245264 L37.222985,16.9245264 C37.7752698,16.9245264 38.222985,17.3722416 38.222985,17.9245264 L38.222985,46.5424475 L30.7289883,46.5424475 C30.1767036,46.5424475 29.7289883,46.0947323 29.7289883,45.5424475 L29.7289883,17.9245264 C29.7289883,17.3722416 30.1767036,16.9245264 30.7289883,16.9245264 Z M38.222985,38.0801843 L54.2109784,38.0801843 C54.7632631,38.0801843 55.2109784,38.5278996 55.2109784,39.0801843 L55.2109784,45.5424475 C55.2109784,46.0947323 54.7632631,46.5424475 54.2109784,46.5424475 L38.222985,46.5424475 L38.222985,38.0801843 Z" id="Shape"></path>
        </g>
    </g>
</svg>