<?xml version="1.0" encoding="UTF-8"?>
<svg width="100px" height="100px" viewBox="0 0 100 100" version="1.1" xmlns="http://www.w3.org/2000/svg" xmlns:xlink="http://www.w3.org/1999/xlink">
    <!-- Generator: Sketch 52.6 (67491) - http://www.bohemiancoding.com/sketch -->
    <title>Artboard</title>
    <desc>Created with Sketch.</desc>
    <g id="Artboard" stroke="none" stroke-width="1" fill="none" fill-rule="evenodd">
        <path d="M99.3959271,46.490625 C89.9809787,28.3045313 71.3420544,16 50,16 C28.6579456,16 10.013813,28.313125 0.604072876,46.4923438 C-0.201357625,48.0696403 -0.201357625,49.9320785 0.604072876,51.509375 C10.0190213,69.6954688 28.6579456,82 50,82 C71.3420544,82 89.986187,69.686875 99.3959271,51.5076563 C100.201358,49.9303597 100.201358,48.0679215 99.3959271,46.490625 Z M50.9999985,73.999997 C37.1928806,73.999997 26,62.8071164 26,48.9999985 C26,35.1928806 37.1928806,24 50.9999985,24 C64.8071164,24 75.999997,35.1928806 75.999997,48.9999985 C76.003223,55.6313988 73.3703381,61.9921208 68.6812294,66.6812294 C63.9921208,71.3703381 57.6313988,74.003223 50.9999985,73.999997 Z M50.9600328,32.0000447 C49.4392744,32.020049 47.9283288,32.2330074 46.4680493,32.6331619 C48.9554578,35.8148176 48.6006353,40.2295613 45.6330117,43.0227977 C42.6653882,45.8160341 37.9750234,46.1500061 34.5947308,43.8087658 C32.6847872,50.4318757 35.4749709,57.4638125 41.5299025,61.2870734 C47.5848342,65.1103344 55.5558364,64.8733253 61.3423145,60.6979727 C67.1287925,56.5226201 69.4418645,49.3389435 67.0915959,42.8425065 C64.7413273,36.3460694 58.2512177,31.9838905 50.9600328,32.0000447 Z" id="Shape" fill="#FFFFFF" fill-rule="nonzero"></path>
    </g>
</svg>