<?xml version="1.0" encoding="UTF-8"?>
<svg width="100px" height="100px" viewBox="0 0 100 100" version="1.1" xmlns="http://www.w3.org/2000/svg" xmlns:xlink="http://www.w3.org/1999/xlink">
    <!-- Generator: Sketch 52.6 (67491) - http://www.bohemiancoding.com/sketch -->
    <title>Artboard</title>
    <desc>Created with Sketch.</desc>
    <g id="Artboard" stroke="none" stroke-width="1" fill="none" fill-rule="evenodd">
        <g id="customer" transform="translate(5.000000, 28.000000)" fill="#00B37E">
            <path d="M25.6421393,40.5219773 L12.1168196,14.4305802 C10.8108401,11.9110762 7.63232536,10.8836279 5.01063463,12.1334204 L1.47558981,13.8183674 C0.159347841,14.4464133 -0.376243564,15.9856278 0.280727326,17.2498914 L16.2051497,47.8945782 C16.8599973,49.1583311 18.4529703,49.6612444 19.758596,49.041711 L23.2481678,47.3782153 C25.8801209,46.1238261 26.9528962,43.0510152 25.6421393,40.5219773 Z" id="Path"></path>
            <path d="M88.0570093,1.96316373 C85.8556407,0.38864046 82.7954502,0.703545114 80.9702523,2.64545715 L66.2956546,20.2801178 C65.2755911,21.3298 63.3428392,21.9596093 62.3227757,21.9596093 L49.813397,21.9596093 C48.3099666,21.9596093 47.1290194,20.8051338 47.1290194,19.3354038 C47.1290194,17.8656738 48.3099666,16.7111984 49.813397,16.7111984 C53.4086734,16.7111984 57.3890686,16.7111984 60.5509075,16.7111984 C63.5037229,16.7111984 65.9196628,14.3494135 65.9196628,11.4627875 C65.9196628,8.57616147 63.5037229,6.21437657 60.5509075,6.21437657 C47.9439964,6.21437657 59.9692924,6.21437657 46.4847687,6.21437657 C45.1468749,6.21437657 44.4797176,5.3849527 43.4245782,4.48222602 C39.2711302,0.828457293 33.0541116,-0.931859725 26.7601408,0.494308466 C23.2654391,1.28611872 20.9087345,2.66627585 18.5185646,4.51686553 L18.4389281,4.45370965 L14.5562443,7.79414825 L29.8149626,37.704842 L34.333307,37.704842 L60.5509075,37.704842 C65.5975375,37.704842 70.4295962,35.3430571 73.4360991,31.4067489 L89.1842689,9.36342311 C90.9559582,7.05394736 90.4727702,3.69531428 88.0570093,1.96316373 Z" id="Path"></path>
        </g>
    </g>
</svg>