<?xml version="1.0" encoding="UTF-8"?>
<svg width="100px" height="100px" viewBox="0 0 100 100" version="1.1" xmlns="http://www.w3.org/2000/svg" xmlns:xlink="http://www.w3.org/1999/xlink">
    <!-- Generator: Sketch 52.6 (67491) - http://www.bohemiancoding.com/sketch -->
    <title>Artboard</title>
    <desc>Created with Sketch.</desc>
    <g id="Artboard" stroke="none" stroke-width="1" fill="none" fill-rule="evenodd">
        <g id="SHARE" transform="translate(0.000000, 5.000000)" fill="#FFFFFF">
            <g id="Group-6">
                <path d="M36.2485625,43.2744654 C36.7234769,44.9024499 36.9780415,46.6235588 36.9780415,48.4037771 C36.9780415,50.615095 36.5852574,52.7352092 35.8652657,54.6989262 L59.5388285,68.4500977 C61.9024036,65.9186039 65.2785252,64.3345317 69.026801,64.3345317 C76.1747603,64.3345317 81.9693262,70.0952419 81.9693262,77.201438 C81.9693262,84.3076342 76.1747603,90.0683444 69.026801,90.0683444 C61.8788418,90.0683444 56.0842758,84.3076342 56.0842758,77.201438 C56.0842758,75.708441 56.3400546,74.2748352 56.8104248,72.9415673 L33.3640633,59.3223694 C29.9963497,63.849428 24.5874931,66.7847726 18.4890208,66.7847726 C8.27781656,66.7847726 0,58.5553206 0,48.4037771 C0,38.2522335 8.27781656,30.0227815 18.4890208,30.0227815 C25.0236462,30.0227815 30.7664882,33.3930025 34.054809,38.4804218 L73.6127832,15.5027163 C73.4346198,14.651904 73.3409761,13.7702771 73.3409761,12.8669063 C73.3409761,5.76071019 79.135542,0 86.2835013,0 C93.4314606,0 99.2260265,5.76071019 99.2260265,12.8669063 C99.2260265,19.9731025 93.4314606,25.7338127 86.2835013,25.7338127 C81.9360082,25.7338127 78.0891692,23.6027821 75.7422203,20.3341188 L36.2485625,43.2744654 Z" id="Combined-Shape"></path>
            </g>
        </g>
    </g>
</svg>