<?xml version="1.0" encoding="UTF-8"?>
<svg width="100px" height="100px" viewBox="0 0 100 100" version="1.1" xmlns="http://www.w3.org/2000/svg" xmlns:xlink="http://www.w3.org/1999/xlink">
    <!-- Generator: Sketch 52.6 (67491) - http://www.bohemiancoding.com/sketch -->
    <title>Artboard</title>
    <desc>Created with Sketch.</desc>
    <g id="Artboard" stroke="none" stroke-width="1" fill="none" fill-rule="evenodd">
        <g id="globe" fill="#00B37E" fill-rule="nonzero">
            <path d="M67.8564227,30.6451613 C64.9324461,12.641129 58.0358943,0 50.0100827,0 C41.984271,0 35.0877193,12.641129 32.1637427,30.6451613 L67.8564227,30.6451613 Z M30.651341,50 C30.651341,54.4758065 30.8933253,58.7701613 31.3167977,62.9032258 L68.6832023,62.9032258 C69.1066747,58.7701613 69.348659,54.4758065 69.348659,50 C69.348659,45.5241935 69.1066747,41.2298387 68.6832023,37.0967742 L31.3167977,37.0967742 C30.8933253,41.2298387 30.651341,45.5241935 30.651341,50 Z M96.1282517,30.6451613 C90.3609599,16.9556452 78.6852188,6.37096774 64.2669893,2.09677419 C69.1873362,8.91129032 72.575116,19.1733871 74.3496673,30.6451613 L96.1282517,30.6451613 Z M35.7330107,2.09677419 C21.3349466,6.37096774 9.63904013,16.9556452 3.89191369,30.6451613 L25.6704981,30.6451613 C27.424884,19.1733871 30.8126638,8.91129032 35.7330107,2.09677419 Z M98.2859447,37.0967742 L75.1562815,37.0967742 C75.579754,41.3306452 75.8217383,45.6653226 75.8217383,50 C75.8217383,54.3346774 75.579754,58.6693548 75.1562815,62.9032258 L98.2657794,62.9032258 C99.374874,58.7701613 100,54.4758065 100,50 C100,45.5241935 99.374874,41.2298387 98.2859447,37.0967742 Z M24.1984271,50 C24.1984271,45.6653226 24.4404114,41.3306452 24.8638838,37.0967742 L1.73422061,37.0967742 C0.645291389,41.2298387 0,45.5241935 0,50 C0,54.4758065 0.645291389,58.7701613 1.73422061,62.9032258 L24.8437185,62.9032258 C24.4404114,58.6693548 24.1984271,54.3346774 24.1984271,50 Z M32.1637427,69.3548387 C35.0877193,87.358871 41.984271,100 50.0100827,100 C58.0358943,100 64.9324461,87.358871 67.8564227,69.3548387 L32.1637427,69.3548387 Z M64.2871547,97.9032258 C78.6852188,93.6290323 90.3811252,83.0443548 96.148417,69.3548387 L74.3698326,69.3548387 C72.5952813,80.8266129 69.2075015,91.0887097 64.2871547,97.9032258 Z M3.89191369,69.3548387 C9.65920548,83.0443548 21.3349466,93.6290323 35.753176,97.9032258 C30.8328292,91.0887097 27.4450494,80.8266129 25.6704981,69.3548387 L3.89191369,69.3548387 Z" id="Shape"></path>
        </g>
    </g>
</svg>