<?xml version="1.0" encoding="UTF-8"?>
<svg width="100px" height="100px" viewBox="0 0 100 100" version="1.1" xmlns="http://www.w3.org/2000/svg" xmlns:xlink="http://www.w3.org/1999/xlink">
    <!-- Generator: Sketch 52.6 (67491) - http://www.bohemiancoding.com/sketch -->
    <title>Artboard</title>
    <desc>Created with Sketch.</desc>
    <g id="Artboard" stroke="none" stroke-width="1" fill="none" fill-rule="evenodd">
        <path d="M53.9011083,85.3108431 C55.1483377,84.1299079 63.2774453,77.231715 65.3514163,75.4192442 C72.3117779,69.3364916 78.5873235,63.4163425 84.5415803,57.1177432 C87.1846993,54.3217692 89.6933825,51.5208888 92.0576374,48.7134543 C92.4518575,48.1668015 93.0419749,47.1625835 93.6052245,45.9607585 C94.4656274,44.1248872 95.1511008,42.0861179 95.5663328,39.9090726 C96.6856882,34.0403355 95.7372445,27.9934546 91.9889265,21.893037 C87.7203527,14.945899 81.1913295,10.8726369 74.5663754,11.0030901 C67.0701911,11.1506988 59.6058173,16.5109079 53.4624706,27.570975 L50.0059222,33.7939116 L46.4882179,27.6053396 C40.0000431,16.1909248 33.1295214,11.0849792 26.3318371,11.1332503 C20.3393251,11.1758037 13.8913167,15.2859442 8.12384737,22.6069738 C4.30889987,27.6761262 3.29887262,33.7057019 4.4282991,40.2249482 C4.84575833,42.6345955 5.53742953,44.9540865 6.37665071,47.0132294 C6.68804203,47.7772702 7.00064423,48.4553633 7.27612961,48.9852087 C7.34047951,49.1089739 7.39904779,49.2172441 7.44861055,49.3052465 L7.65141795,49.6097006 C9.40797639,52.2466428 11.8579529,55.200579 14.9240415,58.4181482 C17.7073241,61.3389395 20.9485779,64.4267188 24.6127518,67.6847894 C30.076038,72.5425751 43.0894424,83.056743 45.5121935,85.1209865 L45.5170148,85.1149964 C46.0948139,85.5800492 46.83423,86.1488883 47.6979588,86.7951986 C47.8167778,86.8841084 47.9376496,86.9742592 48.0604625,87.0655753 C48.6645299,87.5147227 49.2987014,87.9796614 49.9433411,88.4472321 C50.3929135,88.1125731 50.8341647,87.7800618 51.2576583,87.4560028 C51.4021777,87.3454159 51.543454,87.2367008 51.6812299,87.1300332 C52.6599861,86.3722701 53.4323642,85.7404213 53.9011083,85.3108431 Z" id="heart-copy-10" stroke="#FFFFFF" stroke-width="8"></path>
    </g>
</svg>