<?xml version="1.0" encoding="UTF-8"?>
<svg width="100px" height="100px" viewBox="0 0 100 100" version="1.1" xmlns="http://www.w3.org/2000/svg" xmlns:xlink="http://www.w3.org/1999/xlink">
    <!-- Generator: Sketch 52.6 (67491) - http://www.bohemiancoding.com/sketch -->
    <title>Artboard</title>
    <desc>Created with Sketch.</desc>
    <g id="Artboard" stroke="none" stroke-width="1" fill="none" fill-rule="evenodd">
        <g id="18-youtube" transform="translate(1.000000, 0.000000)" fill="#00B37E">
            <g id="Group">
                <path d="M80.3520055,47.7214368 L18.3421913,47.7214368 C8.48564077,47.7214368 0.495619727,55.9765668 0.495619727,66.1479562 L0.495619727,80.9537324 C0.495619727,91.1251218 8.48564077,99.3781958 18.3421913,99.3781958 L80.3520055,99.3781958 C90.206564,99.3781958 98.1985771,91.1251218 98.1985771,80.9537324 L98.1985771,66.1479562 C98.1985771,55.9765668 90.206564,47.7214368 80.3520055,47.7214368 L80.3520055,47.7214368 Z M31.3700491,59.2477778 L25.6051224,59.2477778 L25.6051224,88.8140966 L20.0354144,88.8140966 L20.0354144,59.2477778 L14.2744718,59.2477778 L14.2744718,54.2186251 L31.3700491,54.2186251 L31.3700491,59.2477778 L31.3700491,59.2477778 Z M47.6548713,88.8140966 L42.7146439,88.8140966 L42.7146439,86.0178384 C41.7963194,87.0520427 40.8501064,87.8415744 39.862061,88.3740972 C38.8740155,88.9292367 37.9198345,89.1883018 36.9915498,89.1883018 C35.8441421,89.1883018 34.9915545,88.8120405 34.4078905,88.0471817 C33.8341867,87.2843789 33.5413587,86.1535391 33.5413587,84.6258775 L33.5413587,63.2900158 L38.4815861,63.2900158 L38.4815861,82.8699918 C38.4815861,83.474477 38.5911476,83.9083082 38.7883583,84.1776537 C39.0015052,84.4552235 39.3401498,84.5826999 39.8042922,84.5826999 C40.1628571,84.5826999 40.6250074,84.4058777 41.180783,84.0481212 C41.7405426,83.6862524 42.2505016,83.2339165 42.7146439,82.6746649 L42.7146439,63.2879597 L47.6548713,63.2879597 L47.6548713,88.8140966 L47.6548713,88.8140966 Z M65.5910841,83.5443835 C65.5910841,85.3475588 65.2026388,86.7333515 64.4277402,87.6997055 C63.6568257,88.6660594 62.5293383,89.1410121 61.0691824,89.1410121 C60.0970731,89.1410121 59.2325333,88.9600777 58.4815391,88.5858726 C57.7265608,88.2157796 57.015407,87.6462476 56.3679982,86.8567158 L56.3679982,88.8120405 L51.36801,88.8120405 L51.36801,54.2186251 L56.3679982,54.2186251 L56.3679982,65.3604805 C57.0373193,64.5894534 57.744489,63.9911364 58.4835311,63.5902023 C59.2385094,63.181044 59.9974717,62.983661 60.7663942,62.983661 C62.3301356,62.983661 63.5213678,63.522352 64.3460671,64.6100142 C65.1747504,65.6976764 65.5871,67.2911324 65.5871,69.3801018 L65.5871,83.5443835 L65.5910841,83.5443835 Z M82.7284939,76.6668218 L73.2743329,76.6668218 L73.2743329,81.4759748 C73.2743329,82.8165339 73.4336951,83.7499907 73.7564035,84.270177 C74.08708,84.7924193 74.6428556,85.0473723 75.4336904,85.0473723 C76.2544056,85.0473723 76.8221333,84.8273725 77.1528099,84.3873731 C77.4715342,83.9432615 77.6428485,82.9769075 77.6428485,81.4759748 L77.6428485,80.314294 L82.7284939,80.314294 L82.7284939,81.624012 C82.7284939,84.2393359 82.1129575,86.2111092 80.8639565,87.5413879 C79.6348757,88.8593302 77.7822904,89.5131612 75.3201448,89.5131612 C73.1030186,89.5131612 71.3560108,88.8161527 70.0870894,87.4139114 C68.8221522,86.0198944 68.1767354,84.0851305 68.1767354,81.6260681 L68.1767354,70.1614092 C68.1767354,67.9552437 68.881913,66.1397319 70.2823081,64.747771 C71.6787192,63.3558101 73.4775197,62.6608577 75.6906619,62.6608577 C77.9555968,62.6608577 79.6946365,63.3044083 80.9077811,64.5956217 C82.1209257,65.8888911 82.7284939,67.7393561 82.7284939,70.1593532 L82.7284939,76.6668218 L82.7284939,76.6668218 Z" id="Shape"></path>
                <path d="M73.7882759,67.8277672 C73.4376792,68.275991 73.2743329,69.0429059 73.2743329,70.1141196 L73.2743329,72.6944902 L77.6428485,72.6944902 L77.6428485,70.1141196 C77.6428485,69.0429059 77.4675502,68.2739349 77.1209374,67.8277672 C76.7882689,67.3528145 76.2324933,67.1225345 75.4814991,67.1225345 C74.6926563,67.1225345 74.1309046,67.3507585 73.7882759,67.8277672 Z" id="Shape"></path>
                <path d="M57.3899082,67.2829081 C57.0432954,67.4453378 56.7046508,67.7146833 56.3699902,68.0642155 L56.3699902,83.9638222 C56.7664036,84.3750366 57.158833,84.6916718 57.5413022,84.8726061 C57.9217794,85.0473723 58.3162008,85.1460637 58.7365185,85.1460637 C59.3440868,85.1460637 59.7863169,84.9651294 60.0711767,84.5991485 C60.3520526,84.2372798 60.4954785,83.6595235 60.4954785,82.8432628 L60.4954785,69.6617837 C60.4954785,68.7941212 60.3281483,68.1444024 59.9775515,67.6982347 C59.6150025,67.2582352 59.1010595,67.0361794 58.4357224,67.0361794 C58.0851256,67.0361794 57.7305448,67.1163662 57.3899082,67.2829081 Z" id="Shape"></path>
                <polygon id="Shape" points="26.4616941 38.8556533 32.7246276 38.8556533 32.7246276 23.0444577 40.0174391 0.740186008 33.6509202 0.740186008 29.7744353 15.9756813 29.3800139 15.9756813 25.3103024 0.740186008 19.0015523 0.740186008 26.4616941 23.7558587"></polygon>
                <path d="M48.5034749,39.5649982 C51.0333494,39.5649982 53.0174085,38.8803261 54.4636202,37.510982 C55.8998718,36.1354697 56.6189936,34.2582757 56.6189936,31.8526712 L56.6189936,17.3285769 C56.6189936,15.1882057 55.8839356,13.4261517 54.4197956,12.067088 C52.9456955,10.7121364 51.0572537,10.0295204 48.7544703,10.0295204 C46.2245958,10.0295204 44.2106563,10.6751271 42.7126519,11.9642844 C41.2186315,13.2534417 40.4676372,14.9825984 40.4676372,17.1682032 L40.4676372,31.7416433 C40.4676372,34.1328553 41.1987112,36.0244418 42.6588671,37.4431316 C44.1190231,38.8556533 46.0712097,39.5649982 48.5034749,39.5649982 L48.5034749,39.5649982 Z M46.1967074,16.9543717 C46.1967074,16.3437183 46.4098543,15.8502609 46.826188,15.4637193 C47.2584579,15.085402 47.8062654,14.9024116 48.4875387,14.9024116 C49.2225967,14.9024116 49.8182128,15.085402 50.272395,15.4637193 C50.7245852,15.8502609 50.9496843,16.3437183 50.9496843,16.9543717 L50.9496843,32.274166 C50.9496843,33.0246324 50.7285693,33.6208933 50.2803631,34.0506124 C49.8361411,34.4823876 49.2385329,34.694163 48.4875387,34.694163 C47.7524806,34.694163 47.1847529,34.4885558 46.7863475,34.0567806 C46.3939181,33.6352858 46.1947154,33.043137 46.1947154,32.2721099 L46.1947154,16.9543717 L46.1967074,16.9543717 Z" id="Shape"></path>
                <path d="M68.2444643,38.3663081 C69.3619915,37.765935 70.4317101,36.8879921 71.449636,35.7427599 L71.449636,38.8577093 L77.013368,38.8577093 L77.013368,10.7409214 L71.449636,10.7409214 L71.449636,32.0829513 C70.931709,32.6936047 70.3560131,33.1952864 69.7384847,33.5941644 C69.1090041,33.9889303 68.591077,34.1863132 68.1827114,34.1863132 C67.6608003,34.1863132 67.2763391,34.038276 67.05124,33.7319212 C66.8221569,33.4379029 66.6926751,32.956782 66.6926751,32.2967828 L66.6926751,10.7409214 L61.1369113,10.7409214 L61.1369113,34.2397711 C61.1369113,35.9154699 61.4636038,37.1676179 62.1090206,37.9982711 C62.7663895,38.8412607 63.7265466,39.2668677 65.0193723,39.2668677 C66.0651865,39.2668677 67.1388892,38.9584569 68.2444643,38.3663081 Z" id="Shape"></path>
            </g>
        </g>
    </g>
</svg>