<?xml version="1.0" encoding="UTF-8"?>
<svg width="187px" height="32px" viewBox="0 0 187 32" version="1.1" xmlns="http://www.w3.org/2000/svg" xmlns:xlink="http://www.w3.org/1999/xlink">
    <!-- Generator: Sketch 47 (45396) - http://www.bohemiancoding.com/sketch -->
    <title>Group</title>
    <desc>Created with Sketch.</desc>
    <defs></defs>
    <g id="Page-1" stroke="none" stroke-width="1" fill="none" fill-rule="evenodd">
        <g id="panduan-copy" transform="translate(-175.000000, -547.000000)">
            <g id="Group" transform="translate(175.000000, 547.000000)">
                <g id="Group-73" transform="translate(45.000000, 0.000000)" fill="#20E16D">
                    <polygon id="Path-23-Copy-13" points="0.214586152 0 10.6832816 0 21.6850109 15.1344292 9.52896299 31.6451251 3.63797881e-12 31.6451251 11.6802523 15.597785"></polygon>
                    <polygon id="Path-24-Copy-11" transform="translate(25.763241, 24.035653) scale(1, -1) translate(-25.763241, -24.035653) " points="23.8712162 16.3404255 33.8181491 16.3404255 22.6664147 31.7308798 17.7083333 24.810971"></polygon>
                    <polygon id="Path-24-Copy-12" points="23.3115085 0 33.1393436 0 22.6664147 14.2375845 17.7083333 7.31767568"></polygon>
                </g>
                <path d="M86,14.1504993 C86,11.808595 86.8371413,10.0432775 88.511449,8.85449358 C90.1857567,7.6657097 92.2816213,7.07132668 94.7991055,7.07132668 C97.0154553,7.07132668 99.2257493,7.63004672 101.430054,8.74750357 L101.430054,13.0092725 C99.5268837,11.7729372 97.4912452,11.1547789 95.3230769,11.1547789 C93.9619491,11.1547789 92.8086213,11.3865883 91.863059,11.850214 C90.9174968,12.3138397 90.4447227,13.0449308 90.4447227,14.0435093 C90.4447227,14.8518823 90.8753386,15.4849002 91.7365832,15.942582 C92.5978278,16.4002638 93.6397375,16.7866128 94.8623435,17.1016405 C96.0849495,17.4166682 97.3135597,17.811933 98.5482111,18.2874465 C99.7828625,18.7629601 100.830795,19.5861805 101.692039,20.7571327 C102.553284,21.9280848 102.9839,23.4407896 102.9839,25.2952924 C102.9839,27.2686737 102.158804,28.8794517 100.508587,30.1276748 C98.8583698,31.3758978 96.8468216,32 94.4738819,32 C91.3420833,32 88.6258911,31.3105157 86.3252236,29.9315264 L86.3252236,25.4736091 C88.4452104,27.030916 90.8181145,27.8095578 93.4440072,27.8095578 C96.8408041,27.8095578 98.5391771,26.8763764 98.5391771,25.0099857 C98.5391771,24.1659492 98.2320245,23.4645772 97.6177102,22.9058488 C97.0033959,22.3471204 96.2264805,21.9340242 95.286941,21.6665478 C94.3474014,21.3990714 93.3416273,21.0840484 92.2695886,20.7214693 C91.1975498,20.3588902 90.1917757,19.9636255 89.2522361,19.5356633 C88.3126966,19.1077011 87.5357812,18.4390202 86.9214669,17.5296006 C86.3071526,16.6201809 86,15.4938251 86,14.1504993 Z M107.555098,22.7988588 C107.555098,19.8744504 108.214573,17.5385251 109.533542,15.7910128 C110.852511,14.0435005 112.945364,13.1697575 115.812165,13.1697575 C118.522375,13.1697575 120.57307,14.0197252 121.964311,15.7196862 C123.355553,17.4196471 124.051163,19.5118754 124.051163,21.9964337 C124.051163,23.0187878 124.027072,23.7736542 123.978891,24.2610556 L112.108229,24.2610556 C112.228683,25.8421382 112.707479,26.90014 113.544633,27.4350927 C114.381787,27.9700455 115.468866,28.2375178 116.805903,28.2375178 C118.974072,28.2375178 121.069936,27.7679552 123.09356,26.828816 L123.09356,30.3594864 C121.045845,31.4531676 118.727145,32 116.137388,32 C115.318302,32 114.54741,31.9346179 113.824687,31.8038516 C113.101964,31.6730854 112.346128,31.3996692 111.557156,30.9835949 C110.768183,30.5675205 110.08763,30.0385196 109.515474,29.3965763 C108.943319,28.754633 108.473556,27.8660304 108.106172,26.7307418 C107.738788,25.5954532 107.555098,24.2848386 107.555098,22.7988588 Z M112.108229,21.2296719 L119.552236,21.2296719 C119.431782,19.969561 119.05537,18.9056154 118.422987,18.0378031 C117.790605,17.1699909 116.920339,16.7360913 115.812165,16.7360913 C114.70399,16.7360913 113.839747,17.0897492 113.21941,17.7970756 C112.599073,18.504402 112.228683,19.6485893 112.108229,21.2296719 Z M128.893381,31.7146933 L128.893381,15.1312411 C129.194516,14.988587 129.610075,14.8191879 130.140072,14.6230385 C130.670068,14.4268892 131.736068,14.1475292 133.338104,13.7849501 C134.940139,13.422371 136.530105,13.2291965 138.10805,13.2054208 L138.10805,17.0035663 C136.253062,17.027342 134.663095,17.2294322 133.338104,17.6098431 L133.338104,31.7146933 L128.893381,31.7146933 Z M140.474955,13.4907275 L145.208766,13.4907275 L149.834168,27.256776 L154.459571,13.4907275 L159.229517,13.4907275 L152.164937,31.7146933 L147.539535,31.7146933 L140.474955,13.4907275 Z M163.891055,11.0121255 L163.891055,7 L168.426118,7 L168.426118,11.0121255 L163.891055,11.0121255 Z M163.963327,31.7146933 L163.963327,13.4907275 L168.389982,13.4907275 L168.389982,31.7146933 L163.963327,31.7146933 Z M173.738104,18.8937233 C173.738104,17.0629961 174.391556,15.6572802 175.698479,14.6765335 C177.005403,13.6957868 178.634516,13.2054208 180.585868,13.2054208 C182.416765,13.2054208 184.09707,13.6393204 185.626834,14.5071327 L185.626834,17.8416548 C184.374114,17.2591507 182.952781,16.967903 181.362791,16.967903 C179.242804,16.967903 178.182826,17.4790724 178.182826,18.5014265 C178.182826,19.0126036 178.483956,19.4138121 179.086225,19.7050642 C179.688494,19.9963162 180.423251,20.2519009 181.290519,20.471826 C182.157786,20.691751 183.022029,20.9889425 183.883274,21.3634094 C184.744518,21.7378763 185.479275,22.3708943 186.087567,23.2624822 C186.695859,24.1540701 187,25.2893417 187,26.668331 C187,28.2018622 186.370638,29.4738418 185.111896,30.4843081 C183.853154,31.4947744 182.187905,32 180.1161,32 C177.996113,32 176.044791,31.5007183 174.262075,30.5021398 L174.262075,26.5970043 C175.888201,27.6669098 177.628733,28.2018545 179.483721,28.2018545 C180.760531,28.2018545 181.59165,28.0562307 181.977102,27.7649786 C182.362554,27.4737266 182.555277,27.036855 182.555277,26.4543509 C182.555277,25.9193982 182.251136,25.4884705 181.642844,25.1615549 C181.034553,24.8346394 180.299796,24.5493355 179.438551,24.3056348 C178.577306,24.0619341 177.716075,23.7736583 176.85483,23.4407989 C175.993585,23.1079394 175.258828,22.5581351 174.650537,21.7913695 C174.042245,21.0246039 173.738104,20.0587315 173.738104,18.8937233 Z" id="Servis-Copy-2" fill="#C8C8C8"></path>
                <path d="M0,32 L0,0 L22.2816353,0 L22.2816353,6.72327965 L8.45165477,6.72327965 L8.45165477,13.1888726 L20.4088254,13.1888726 L20.4088254,19.9590044 L8.45165477,19.9590044 L8.45165477,32 L0,32 Z M28.5483452,32 L28.5483452,0 L37,0 L37,32 L28.5483452,32 Z" id="FI-Copy-5" fill="#20E16D"></path>
            </g>
        </g>
    </g>
</svg>