<?xml version="1.0" encoding="UTF-8"?>
<svg width="334px" height="68px" viewBox="0 0 334 68" version="1.1" xmlns="http://www.w3.org/2000/svg" xmlns:xlink="http://www.w3.org/1999/xlink">
    <!-- Generator: Sketch 47 (45396) - http://www.bohemiancoding.com/sketch -->
    <title>Group 72</title>
    <desc>Created with Sketch.</desc>
    <defs></defs>
    <g id="Page-1" stroke="none" stroke-width="1" fill="none" fill-rule="evenodd">
        <g id="Group-72">
            <g id="Group-73" transform="translate(64.000000, 2.000000)" fill="#20E16D">
                <polygon id="Path-23-Copy-13" points="0.302945155 0 15.0822799 0 30.6141331 22.2286928 13.4526536 46.4787774 3.63797881e-12 46.4787774 16.4897679 22.9092468"></polygon>
                <polygon id="Path-24-Copy-11" transform="translate(36.371635, 35.302365) scale(1, -1) translate(-36.371635, -35.302365) " points="33.7005406 24 47.7432693 24 31.9996443 46.6047298 25 36.4411137"></polygon>
                <polygon id="Path-24-Copy-12" points="32.9103649 0 46.7849557 0 31.9996443 20.9114522 25 10.7478362"></polygon>
            </g>
            <g id="Group-72-Copy" transform="translate(311.000000, 25.500000) scale(-1, 1) translate(-311.000000, -25.500000) translate(288.000000, 2.000000)" fill="#404269">
                <polygon id="Path-23-Copy-12" points="0.302945155 0 15.0822799 0 30.6141331 22.2286928 13.4526536 46.4787774 3.63797881e-12 46.4787774 16.4897679 22.9092468"></polygon>
                <polygon id="Path-24-Copy-8" transform="translate(34.943357, 35.739380) scale(1, -1) translate(-34.943357, -35.739380) " points="31.9031253 25 45.8867131 25 30.9996443 46.4787598 24 36.3151437"></polygon>
                <polygon id="Path-24-Copy-10" points="32.9103649 0 45.8867188 0 31.9996443 20.4654212 25 10.7478362"></polygon>
            </g>
            <path d="M0,48 L0,1 L31.9169371,1 L31.9169371,10.874817 L12.1064244,10.874817 L12.1064244,20.3711567 L29.2342635,20.3711567 L29.2342635,30.3147877 L12.1064244,30.3147877 L12.1064244,48 L0,48 Z M40.8935756,48 L40.8935756,1 L53,1 L53,48 L40.8935756,48 Z" id="FI-Copy-5" fill="#20E16D"></path>
            <path d="M168,47 L168,0 L199.604581,0 L199.604581,9.87481698 L179.987945,9.87481698 L179.987945,19.3711567 L196.948162,19.3711567 L196.948162,29.3147877 L179.987945,29.3147877 L179.987945,47 L168,47 Z M208.425256,47 L208.425256,0 L220.413201,0 L220.413201,36.0929722 L241.085594,36.0929722 L241.085594,47 L208.425256,47 Z M248.578059,47 L248.578059,0 L281,0 L281,9.87481698 L260.566004,9.87481698 L260.566004,18.545388 L278.309524,18.545388 L278.309524,28.454612 L260.566004,28.454612 L260.566004,37.056369 L281,37.056369 L281,47 L248.578059,47 Z" id="FLE" fill="#404269"></path>
            <path d="M115.862305,33.4306641 C115.862305,30.8557814 116.374995,28.4974065 117.400391,26.3554688 C118.425786,24.213531 120.613265,22.0602322 123.962891,19.8955078 C123.962891,19.8499347 123.860353,19.7018242 123.655273,19.4511719 L123.142578,18.7675781 C122.983072,18.5852855 122.777996,18.3118508 122.527344,17.9472656 C122.276691,17.5826805 122.060222,17.2351905 121.87793,16.9047852 C121.695637,16.5743799 121.496258,16.1642277 121.279785,15.6743164 C121.063313,15.1844051 120.886719,14.7172874 120.75,14.2729492 C120.613281,13.8286111 120.499349,13.3387071 120.408203,12.8032227 C120.317057,12.2677382 120.271484,11.7379583 120.271484,11.2138672 C120.271484,8.09210679 121.251292,5.44890405 123.210938,3.28417969 C125.170583,1.11945532 127.984682,0.037109375 131.65332,0.037109375 C135.299172,0.037109375 138.136058,1.07388286 140.164062,3.14746094 C142.192067,5.22103901 143.206055,7.94399355 143.206055,11.3164062 C143.206055,13.8457158 142.670578,15.8850834 141.599609,17.4345703 C140.52864,18.9840572 138.694349,20.5790934 136.09668,22.2197266 L136.848633,23.1425781 C137.167645,23.5527364 137.839839,24.3502545 138.865234,25.5351562 L142.522461,29.8417969 L143.582031,25.3642578 L151.614258,25.3642578 C150.885087,29.8076394 149.700204,33.5445812 148.05957,36.5751953 L156.741211,47 L146.213867,47 L143.069336,43.0009766 C139.71971,46.0315907 135.709333,47.546875 131.038086,47.546875 C128.41763,47.546875 126.093435,47.0797573 124.06543,46.1455078 C122.037425,45.2112583 120.453782,44.0092847 119.314453,42.5395508 C118.175125,41.0698169 117.314944,39.5545325 116.733887,37.9936523 C116.152829,36.4327721 115.862305,34.9117913 115.862305,33.4306641 Z M123.689453,33.6357422 C123.689453,34.1598333 123.791991,34.7465788 123.99707,35.3959961 C124.202149,36.0454134 124.566729,36.7290003 125.09082,37.4467773 C125.614911,38.1645544 126.401036,38.7683895 127.449219,39.2583008 C128.497401,39.7482121 129.739251,39.9931641 131.174805,39.9931641 C133.886407,39.9931641 136.244782,39.0361424 138.25,37.1220703 L129.089844,26.0820312 C127.791009,26.788415 126.742843,27.5118778 125.945312,28.2524414 C125.147782,28.993005 124.595216,29.7221644 124.287598,30.4399414 C123.979979,31.1577184 123.803386,31.704588 123.757812,32.0805664 C123.712239,32.4565448 123.689453,32.9749316 123.689453,33.6357422 Z M128.030273,11.1455078 C128.030273,12.0797573 128.964509,13.7203659 130.833008,16.0673828 C132.701507,14.9964139 133.93766,14.0849647 134.541504,13.3330078 C135.145348,12.5810509 135.447266,11.7607466 135.447266,10.8720703 C135.447266,9.89224771 135.088382,9.05485374 134.370605,8.35986328 C133.652828,7.66487283 132.775559,7.31738281 131.73877,7.31738281 C130.70198,7.31738281 129.824711,7.68765906 129.106934,8.42822266 C128.389157,9.16878625 128.030273,10.0745389 128.030273,11.1455078 Z" id="&amp;-copy" fill="#C8C8C8"></path>
            <path d="M278,58.0042796 C278,56.6928132 278.455869,55.7042354 279.367621,55.0385164 C280.279372,54.3727974 281.420685,54.0399429 282.791592,54.0399429 C283.998515,54.0399429 285.202141,54.3528262 286.402504,54.978602 L286.402504,57.3651926 C285.366125,56.6728449 284.257609,56.3266762 283.076923,56.3266762 C282.335715,56.3266762 281.707665,56.4564894 281.192755,56.7161198 C280.677845,56.9757502 280.420394,57.3851613 280.420394,57.9443652 C280.420394,58.3970541 280.654887,58.7515441 281.123882,59.0078459 C281.592877,59.2641477 282.160253,59.4805032 282.826029,59.6569187 C283.491804,59.8333342 284.160849,60.0546825 284.833184,60.32097 C285.505519,60.5872576 286.076175,61.0482611 286.54517,61.7039943 C287.014165,62.3597275 287.248658,63.2068422 287.248658,64.2453638 C287.248658,65.3504573 286.799349,66.2524929 285.900716,66.9514979 C285.002083,67.6505028 283.906685,68 282.61449,68 C280.909055,68 279.429941,67.6138888 278.177102,66.8416548 L278.177102,64.3452211 C279.33155,65.217313 280.623726,65.6533524 282.053667,65.6533524 C283.903408,65.6533524 284.828265,65.1307708 284.828265,64.085592 C284.828265,63.6129315 284.661003,63.2201632 284.326476,62.9072753 C283.991948,62.5943874 283.568876,62.3630535 283.057245,62.2132668 C282.545615,62.06348 281.997916,61.8870671 281.414132,61.6840228 C280.830349,61.4809785 280.28265,61.2596303 279.77102,61.0199715 C279.259389,60.7803126 278.836317,60.4058513 278.501789,59.8965763 C278.167261,59.3873013 278,58.756542 278,58.0042796 Z M289.737925,62.8473609 C289.737925,61.2096922 290.097045,59.9015741 290.815295,58.9229672 C291.533546,57.9443603 292.673218,57.4550642 294.234347,57.4550642 C295.710204,57.4550642 296.826919,57.9310461 297.584526,58.8830243 C298.342133,59.8350024 298.72093,61.0066502 298.72093,62.3980029 C298.72093,62.9705212 298.707812,63.3932464 298.681574,63.6661912 L292.217352,63.6661912 C292.282946,64.5515974 292.543677,65.1440784 292.999553,65.4436519 C293.455429,65.7432255 294.047402,65.89301 294.775492,65.89301 C295.956178,65.89301 297.09749,65.6300549 298.199463,65.1041369 L298.199463,67.0813124 C297.084371,67.6937739 295.821712,68 294.411449,68 C293.965412,68 293.545619,67.963386 293.152057,67.8901569 C292.758495,67.8169278 292.346901,67.6638148 291.917263,67.4308131 C291.487625,67.1978115 291.117026,66.901571 290.805456,66.5420827 C290.493886,66.1825945 290.238075,65.684977 290.038014,65.0492154 C289.837954,64.4134538 289.737925,63.6795096 289.737925,62.8473609 Z M292.217352,61.9686163 L296.27102,61.9686163 C296.205426,61.2629542 296.000449,60.6671446 295.656082,60.1811698 C295.311716,59.6951949 294.837809,59.4522111 294.234347,59.4522111 C293.630885,59.4522111 293.160258,59.6502596 292.822451,60.0463623 C292.484644,60.4424651 292.282946,61.08321 292.217352,61.9686163 Z M301.357782,67.8402282 L301.357782,58.553495 C301.521766,58.4736087 301.748061,58.3787452 302.036673,58.2689016 C302.325285,58.1590579 302.90578,58.0026163 303.778175,57.799572 C304.650571,57.5965278 305.516394,57.48835 306.375671,57.4750357 L306.375671,59.6019971 C305.365529,59.6153115 304.499705,59.7284821 303.778175,59.9415121 L303.778175,67.8402282 L301.357782,67.8402282 Z M307.66458,57.6348074 L310.242397,57.6348074 L312.761181,65.3437946 L315.279964,57.6348074 L317.87746,57.6348074 L314.030411,67.8402282 L311.511628,67.8402282 L307.66458,57.6348074 Z M320.415921,56.2467903 L320.415921,54 L322.88551,54 L322.88551,56.2467903 L320.415921,56.2467903 Z M320.455277,67.8402282 L320.455277,57.6348074 L322.865832,57.6348074 L322.865832,67.8402282 L320.455277,67.8402282 Z M325.778175,60.660485 C325.778175,59.6352778 326.134016,58.8480769 326.845707,58.2988588 C327.557398,57.7496406 328.444539,57.4750357 329.507156,57.4750357 C330.504179,57.4750357 331.419197,57.7180194 332.252236,58.2039943 L332.252236,60.0713267 C331.570062,59.7451244 330.796069,59.5820257 329.930233,59.5820257 C328.775784,59.5820257 328.198569,59.8682805 328.198569,60.4407989 C328.198569,60.727058 328.362551,60.9517348 328.690519,61.1148359 C329.018487,61.2779371 329.418602,61.4210645 329.890877,61.5442225 C330.363151,61.6673805 330.833778,61.8338078 331.302773,62.0435093 C331.771767,62.2532107 332.171883,62.6077008 332.503131,63.10699 C332.834379,63.6062792 333,64.2420313 333,65.0142653 C333,65.8730428 332.657278,66.5853514 331.971825,67.1512126 C331.286371,67.7170737 330.379552,68 329.251342,68 C328.096893,68 327.034292,67.7204022 326.063506,67.1611983 L326.063506,64.9743224 C326.949021,65.5734695 327.896835,65.8730385 328.906977,65.8730385 C329.602269,65.8730385 330.054859,65.7914892 330.264758,65.628388 C330.474658,65.4652869 330.579606,65.2206388 330.579606,64.8944365 C330.579606,64.594863 330.413985,64.3535435 330.082737,64.1704708 C329.751489,63.987398 329.351374,63.8276279 328.882379,63.6911555 C328.413385,63.5546831 327.944397,63.3932487 327.475403,63.2068474 C327.006408,63.020446 326.606293,62.7125556 326.275045,62.2831669 C325.943797,61.8537782 325.778175,61.3128896 325.778175,60.660485 Z" id="Servis" fill="#C8C8C8"></path>
        </g>
    </g>
</svg>