<?xml version="1.0" encoding="UTF-8"?>
<svg width="241px" height="32px" viewBox="0 0 241 32" version="1.1" xmlns="http://www.w3.org/2000/svg" xmlns:xlink="http://www.w3.org/1999/xlink">
    <!-- Generator: Sketch 47 (45396) - http://www.bohemiancoding.com/sketch -->
    <title>Group 2</title>
    <desc>Created with Sketch.</desc>
    <defs></defs>
    <g id="Page-1" stroke="none" stroke-width="1" fill="none" fill-rule="evenodd">
        <g id="panduan-copy" transform="translate(-631.000000, -547.000000)">
            <g id="Group-2" transform="translate(631.000000, 547.000000)">
                <path d="M140,14.1504993 C140,11.808595 140.837141,10.0432775 142.511449,8.85449358 C144.185757,7.6657097 146.281621,7.07132668 148.799106,7.07132668 C151.015455,7.07132668 153.225749,7.63004672 155.430054,8.74750357 L155.430054,13.0092725 C153.526884,11.7729372 151.491245,11.1547789 149.323077,11.1547789 C147.961949,11.1547789 146.808621,11.3865883 145.863059,11.850214 C144.917497,12.3138397 144.444723,13.0449308 144.444723,14.0435093 C144.444723,14.8518823 144.875339,15.4849002 145.736583,15.942582 C146.597828,16.4002638 147.639737,16.7866128 148.862343,17.1016405 C150.084949,17.4166682 151.31356,17.811933 152.548211,18.2874465 C153.782862,18.7629601 154.830795,19.5861805 155.692039,20.7571327 C156.553284,21.9280848 156.9839,23.4407896 156.9839,25.2952924 C156.9839,27.2686737 156.158804,28.8794517 154.508587,30.1276748 C152.85837,31.3758978 150.846822,32 148.473882,32 C145.342083,32 142.625891,31.3105157 140.325224,29.9315264 L140.325224,25.4736091 C142.44521,27.030916 144.818114,27.8095578 147.444007,27.8095578 C150.840804,27.8095578 152.539177,26.8763764 152.539177,25.0099857 C152.539177,24.1659492 152.232025,23.4645772 151.61771,22.9058488 C151.003396,22.3471204 150.226481,21.9340242 149.286941,21.6665478 C148.347401,21.3990714 147.341627,21.0840484 146.269589,20.7214693 C145.19755,20.3588902 144.191776,19.9636255 143.252236,19.5356633 C142.312697,19.1077011 141.535781,18.4390202 140.921467,17.5296006 C140.307153,16.6201809 140,15.4938251 140,14.1504993 Z M161.555098,22.7988588 C161.555098,19.8744504 162.214573,17.5385251 163.533542,15.7910128 C164.852511,14.0435005 166.945364,13.1697575 169.812165,13.1697575 C172.522375,13.1697575 174.57307,14.0197252 175.964311,15.7196862 C177.355553,17.4196471 178.051163,19.5118754 178.051163,21.9964337 C178.051163,23.0187878 178.027072,23.7736542 177.978891,24.2610556 L166.108229,24.2610556 C166.228683,25.8421382 166.707479,26.90014 167.544633,27.4350927 C168.381787,27.9700455 169.468866,28.2375178 170.805903,28.2375178 C172.974072,28.2375178 175.069936,27.7679552 177.09356,26.828816 L177.09356,30.3594864 C175.045845,31.4531676 172.727145,32 170.137388,32 C169.318302,32 168.54741,31.9346179 167.824687,31.8038516 C167.101964,31.6730854 166.346128,31.3996692 165.557156,30.9835949 C164.768183,30.5675205 164.08763,30.0385196 163.515474,29.3965763 C162.943319,28.754633 162.473556,27.8660304 162.106172,26.7307418 C161.738788,25.5954532 161.555098,24.2848386 161.555098,22.7988588 Z M166.108229,21.2296719 L173.552236,21.2296719 C173.431782,19.969561 173.05537,18.9056154 172.422987,18.0378031 C171.790605,17.1699909 170.920339,16.7360913 169.812165,16.7360913 C168.70399,16.7360913 167.839747,17.0897492 167.21941,17.7970756 C166.599073,18.504402 166.228683,19.6485893 166.108229,21.2296719 Z M182.893381,31.7146933 L182.893381,15.1312411 C183.194516,14.988587 183.610075,14.8191879 184.140072,14.6230385 C184.670068,14.4268892 185.736068,14.1475292 187.338104,13.7849501 C188.940139,13.422371 190.530105,13.2291965 192.10805,13.2054208 L192.10805,17.0035663 C190.253062,17.027342 188.663095,17.2294322 187.338104,17.6098431 L187.338104,31.7146933 L182.893381,31.7146933 Z M194.474955,13.4907275 L199.208766,13.4907275 L203.834168,27.256776 L208.459571,13.4907275 L213.229517,13.4907275 L206.164937,31.7146933 L201.539535,31.7146933 L194.474955,13.4907275 Z M217.891055,11.0121255 L217.891055,7 L222.426118,7 L222.426118,11.0121255 L217.891055,11.0121255 Z M217.963327,31.7146933 L217.963327,13.4907275 L222.389982,13.4907275 L222.389982,31.7146933 L217.963327,31.7146933 Z M227.738104,18.8937233 C227.738104,17.0629961 228.391556,15.6572802 229.698479,14.6765335 C231.005403,13.6957868 232.634516,13.2054208 234.585868,13.2054208 C236.416765,13.2054208 238.09707,13.6393204 239.626834,14.5071327 L239.626834,17.8416548 C238.374114,17.2591507 236.952781,16.967903 235.362791,16.967903 C233.242804,16.967903 232.182826,17.4790724 232.182826,18.5014265 C232.182826,19.0126036 232.483956,19.4138121 233.086225,19.7050642 C233.688494,19.9963162 234.423251,20.2519009 235.290519,20.471826 C236.157786,20.691751 237.022029,20.9889425 237.883274,21.3634094 C238.744518,21.7378763 239.479275,22.3708943 240.087567,23.2624822 C240.695859,24.1540701 241,25.2893417 241,26.668331 C241,28.2018622 240.370638,29.4738418 239.111896,30.4843081 C237.853154,31.4947744 236.187905,32 234.1161,32 C231.996113,32 230.044791,31.5007183 228.262075,30.5021398 L228.262075,26.5970043 C229.888201,27.6669098 231.628733,28.2018545 233.483721,28.2018545 C234.760531,28.2018545 235.59165,28.0562307 235.977102,27.7649786 C236.362554,27.4737266 236.555277,27.036855 236.555277,26.4543509 C236.555277,25.9193982 236.251136,25.4884705 235.642844,25.1615549 C235.034553,24.8346394 234.299796,24.5493355 233.438551,24.3056348 C232.577306,24.0619341 231.716075,23.7736583 230.85483,23.4407989 C229.993585,23.1079394 229.258828,22.5581351 228.650537,21.7913695 C228.042245,21.0246039 227.738104,20.0587315 227.738104,18.8937233 Z" id="Servis-Copy" fill="#C8C8C8"></path>
                <g id="Group-72-Copy-2" transform="translate(118.000000, 16.000000) scale(-1, 1) translate(-118.000000, -16.000000) translate(99.000000, 0.000000)" fill="#404269">
                    <polygon id="Path-23-Copy-12" points="0.250259041 0 12.4592747 0 25.289936 15.1344292 11.1130617 31.6451251 3.63797881e-12 31.6451251 13.6219822 15.597785"></polygon>
                    <polygon id="Path-24-Copy-8" transform="translate(28.866251, 24.333195) scale(1, -1) translate(-28.866251, -24.333195) " points="26.3547557 17.0212766 37.9064152 17.0212766 25.6084018 31.645113 19.826087 24.7252042"></polygon>
                    <polygon id="Path-24-Copy-10" points="27.1868232 0 37.9064198 0 26.4344888 13.9339038 20.6521739 7.31767568"></polygon>
                </g>
                <path d="M0,32 L0,0 L26.2905365,0 L26.2905365,6.72327965 L9.97227245,6.72327965 L9.97227245,13.1888726 L24.0807715,13.1888726 L24.0807715,19.9590044 L9.97227245,19.9590044 L9.97227245,32 L0,32 Z M33.6280892,32 L33.6280892,0 L43.6003617,0 L43.6003617,24.5739385 L60.7968656,24.5739385 L60.7968656,32 L33.6280892,32 Z M67.0295359,32 L67.0295359,0 L94,0 L94,6.72327965 L77.0018083,6.72327965 L77.0018083,12.6266471 L91.7619048,12.6266471 L91.7619048,19.3733529 L77.0018083,19.3733529 L77.0018083,25.2298682 L94,25.2298682 L94,32 L67.0295359,32 Z" id="FLE-Copy" fill="#404269"></path>
            </g>
        </g>
    </g>
</svg>